HIERARCHY
ROOT pelvis
{
	OFFSET 0.003123 -0.351407 0.012037
	CHANNELS 6 Xposition Yposition Zposition Zrotation Yrotation Xrotation 
	JOINT left_hip
	{
		OFFSET 0.058189 -0.092763 -0.026001
		CHANNELS 3 Zrotation Yrotation Xrotation
		JOINT left_knee
		{
			OFFSET 0.054695 -0.378753 -0.009396
			CHANNELS 3 Zrotation Yrotation Xrotation
			JOINT left_ankle
			{
				OFFSET -0.043453 -0.403059 -0.031876
				CHANNELS 3 Zrotation Yrotation Xrotation
				JOINT left_foot
				{
					OFFSET 0.047257 -0.057997 0.118216
					CHANNELS 3 Zrotation Yrotation Xrotation
					End Site
					{
						OFFSET 0.000000 0.000000 0.000000
					}
				}
			}
		}
	}
	JOINT right_hip
	{
		OFFSET -0.063267 -0.103908 -0.021250
		CHANNELS 3 Zrotation Yrotation Xrotation
		JOINT right_knee
		{
			OFFSET -0.044210 -0.362380 -0.016824
			CHANNELS 3 Zrotation Yrotation Xrotation
			JOINT right_ankle
			{
				OFFSET 0.015417 -0.410728 -0.020192
				CHANNELS 3 Zrotation Yrotation Xrotation
				JOINT right_foot
				{
					OFFSET -0.038812 -0.058328 0.119049
					CHANNELS 3 Zrotation Yrotation Xrotation
					End Site
					{
						OFFSET 0.000000 0.000000 0.000000
					}
				}
			}
		}
	}
	JOINT spine_1
	{
		OFFSET -0.002763 0.109891 -0.027618
		CHANNELS 3 Zrotation Yrotation Xrotation
		JOINT spine_2
		{
			OFFSET 0.009448 0.131853 -0.005940
			CHANNELS 3 Zrotation Yrotation Xrotation
			JOINT spine_3
			{
				OFFSET -0.011330 0.052235 0.028447
				CHANNELS 3 Zrotation Yrotation Xrotation
				JOINT neck
				{
					OFFSET -0.012164 0.165167 -0.031615
					CHANNELS 3 Zrotation Yrotation Xrotation
					JOINT head
					{
						OFFSET 0.024783 0.160452 0.020737
						CHANNELS 3 Zrotation Yrotation Xrotation
						End Site
						{
							OFFSET 0.000000 0.000000 0.000000
						}
					}
				}
				JOINT left_collar
				{
					OFFSET 0.046364 0.084944 -0.007220
					CHANNELS 3 Zrotation Yrotation Xrotation
					JOINT left_shoulder
					{
						OFFSET 0.119239 0.057728 -0.015461
						CHANNELS 3 Zrotation Yrotation Xrotation
						JOINT left_elbow
						{
							OFFSET 0.254123 -0.072151 -0.042459
							CHANNELS 3 Zrotation Yrotation Xrotation
							JOINT left_wrist
							{
								OFFSET 0.251987 0.023221 -0.002472
								CHANNELS 3 Zrotation Yrotation Xrotation
								JOINT left_index_1
								{
									OFFSET 0.101902 -0.008688 0.019351
									CHANNELS 3 Zrotation Yrotation Xrotation
									JOINT left_index_2
									{
										OFFSET 0.030149 -0.011154 0.001151
										CHANNELS 3 Zrotation Yrotation Xrotation
										JOINT left_index_3
										{
											OFFSET 0.006504 -0.021577 -0.002433
											CHANNELS 3 Zrotation Yrotation Xrotation
											End Site
											{
												OFFSET 0.000000 0.000000 0.000000
											}
										}
									}
								}
								JOINT left_middle_1
								{
									OFFSET 0.109398 -0.006328 -0.003981
									CHANNELS 3 Zrotation Yrotation Xrotation
									JOINT left_middle_2
									{
										OFFSET 0.026472 -0.015218 -0.004641
										CHANNELS 3 Zrotation Yrotation Xrotation
										JOINT left_middle_3
										{
											OFFSET 0.005022 -0.023347 -0.001911
											CHANNELS 3 Zrotation Yrotation Xrotation
											End Site
											{
												OFFSET 0.000000 0.000000 0.000000
											}
										}
									}
								}
								JOINT left_pinky_1
								{
									OFFSET 0.084047 -0.014539 -0.043750
									CHANNELS 3 Zrotation Yrotation Xrotation
									JOINT left_pinky_2
									{
										OFFSET 0.012124 -0.014448 -0.005375
										CHANNELS 3 Zrotation Yrotation Xrotation
										JOINT left_pinky_3
										{
											OFFSET 0.003798 -0.018853 0.000167
											CHANNELS 3 Zrotation Yrotation Xrotation
											End Site
											{
												OFFSET 0.000000 0.000000 0.000000
											}
										}
									}
								}
								JOINT left_ring_1
								{
									OFFSET 0.097444 -0.009268 -0.027345
									CHANNELS 3 Zrotation Yrotation Xrotation
									JOINT left_ring_2
									{
										OFFSET 0.023561 -0.016057 -0.001895
										CHANNELS 3 Zrotation Yrotation Xrotation
										JOINT left_ring_3
										{
											OFFSET 0.004257 -0.023548 0.000814
											CHANNELS 3 Zrotation Yrotation Xrotation
											End Site
											{
												OFFSET 0.000000 0.000000 0.000000
											}
										}
									}
								}
								JOINT left_thumb_1
								{
									OFFSET 0.040636 -0.017977 0.025611
									CHANNELS 3 Zrotation Yrotation Xrotation
									JOINT left_thumb_2
									{
										OFFSET 0.021637 -0.017639 0.011623
										CHANNELS 3 Zrotation Yrotation Xrotation
										JOINT left_thumb_3
										{
											OFFSET 0.024002 -0.008356 0.006548
											CHANNELS 3 Zrotation Yrotation Xrotation
											End Site
											{
												OFFSET 0.000000 0.000000 0.000000
											}
										}
									}
								}
							}
						}
					}
				}
				JOINT right_collar
				{
					OFFSET -0.047695 0.084339 -0.013400
					CHANNELS 3 Zrotation Yrotation Xrotation
					JOINT right_shoulder
					{
						OFFSET -0.102578 0.053524 -0.012669
						CHANNELS 3 Zrotation Yrotation Xrotation
						JOINT right_elbow
						{
							OFFSET -0.271150 -0.036492 -0.026467
							CHANNELS 3 Zrotation Yrotation Xrotation
							JOINT right_wrist
							{
								OFFSET -0.249267 -0.004533 -0.015325
								CHANNELS 3 Zrotation Yrotation Xrotation
								JOINT right_index_1
								{
									OFFSET -0.099881 -0.011783 0.019600
									CHANNELS 3 Zrotation Yrotation Xrotation
									JOINT right_index_2
									{
										OFFSET -0.030148 -0.011154 0.001151
										CHANNELS 3 Zrotation Yrotation Xrotation
										JOINT right_index_3
										{
											OFFSET -0.006505 -0.021577 -0.002432
											CHANNELS 3 Zrotation Yrotation Xrotation
											End Site
											{
												OFFSET 0.000000 0.000000 0.000000
											}
										}
									}
								}
								JOINT right_middle_1
								{
									OFFSET -0.107376 -0.009422 -0.003734
									CHANNELS 3 Zrotation Yrotation Xrotation
									JOINT right_middle_2
									{
										OFFSET -0.026472 -0.015218 -0.004641
										CHANNELS 3 Zrotation Yrotation Xrotation
										JOINT right_middle_3
										{
											OFFSET -0.005022 -0.023347 -0.001911
											CHANNELS 3 Zrotation Yrotation Xrotation
											End Site
											{
												OFFSET 0.000000 0.000000 0.000000
											}
										}
									}
								}
								JOINT right_pinky_1
								{
									OFFSET -0.082027 -0.017634 -0.043503
									CHANNELS 3 Zrotation Yrotation Xrotation
									JOINT right_pinky_2
									{
										OFFSET -0.012123 -0.014448 -0.005374
										CHANNELS 3 Zrotation Yrotation Xrotation
										JOINT right_pinky_3
										{
											OFFSET -0.003798 -0.018852 0.000167
											CHANNELS 3 Zrotation Yrotation Xrotation
											End Site
											{
												OFFSET 0.000000 0.000000 0.000000
											}
										}
									}
								}
								JOINT right_ring_1
								{
									OFFSET -0.095423 -0.012362 -0.027099
									CHANNELS 3 Zrotation Yrotation Xrotation
									JOINT right_ring_2
									{
										OFFSET -0.023561 -0.016057 -0.001895
										CHANNELS 3 Zrotation Yrotation Xrotation
										JOINT right_ring_3
										{
											OFFSET -0.004257 -0.023548 0.000816
											CHANNELS 3 Zrotation Yrotation Xrotation
											End Site
											{
												OFFSET 0.000000 0.000000 0.000000
											}
										}
									}
								}
								JOINT right_thumb_1
								{
									OFFSET -0.038613 -0.021074 0.025861
									CHANNELS 3 Zrotation Yrotation Xrotation
									JOINT right_thumb_2
									{
										OFFSET -0.021636 -0.017639 0.011623
										CHANNELS 3 Zrotation Yrotation Xrotation
										JOINT right_thumb_3
										{
											OFFSET -0.024004 -0.008353 0.006547
											CHANNELS 3 Zrotation Yrotation Xrotation
											End Site
											{
												OFFSET 0.000000 0.000000 0.000000
											}
										}
									}
								}
							}
						}
					}
				}
			}
		}
	}
}
MOTION
Frames: 4
Frame Time: 0.050000
0.313789 0.955284 1.340271 -179.819211 -78.773076 173.457575 6.554074 5.627713 -12.081816 9.721408 -0.773990 7.497696 -26.039931 -15.189254 15.927941 0.000000 0.000000 0.000000 6.003887 0.508222 8.187455 0.028134 1.200358 0.427642 -23.901817 -11.137179 15.476242 0.000000 0.000000 0.000000 -1.120114 0.015681 5.912489 -4.812272 -3.563475 -21.347063 0.965203 -22.894607 29.763847 -2.268997 1.133926 -2.090134 0.000000 0.000000 0.000000 4.451445 16.018215 -4.410630 -71.149355 -3.326249 26.313321 -22.763800 -10.163547 2.533468 8.908081 -14.406453 -40.936609 23.063864 3.230635 5.753574 17.853817 0.256582 -18.510298 0.000000 0.000000 0.000000 13.155373 2.265702 5.803044 11.680087 0.668650 -10.592501 0.000000 0.000000 0.000000 13.568252 -6.830715 -11.840981 13.206984 1.850750 7.534091 0.000000 0.000000 0.000000 3.136342 -2.015177 -0.951582 18.641645 2.003257 -0.652160 0.000000 0.000000 0.000000 64.338012 19.300126 -2.169609 -3.623144 -20.316639 -8.094618 0.000000 0.000000 0.000000 -7.028774 20.419177 3.274503 -9.792642 61.065996 -46.782615 -136.295245 68.624970 -142.888051 -24.189388 19.758838 -51.500231 -2.602075 10.431229 0.268704 16.893045 27.497299 -23.776741 0.000000 0.000000 0.000000 11.540255 15.045990 -4.694415 5.059597 10.061600 -23.713647 0.000000 0.000000 0.000000 12.643179 26.785252 -24.276559 7.651699 2.903903 -6.783507 0.000000 0.000000 0.000000 20.906994 19.960959 -3.332132 -4.142685 5.998927 -18.290437 0.000000 0.000000 0.000000 -63.850040 -17.423993 2.782578 19.886481 6.764629 3.117385 0.000000 0.000000 0.000000 
0.313789 0.955284 1.340271 176.133578 -78.327108 177.314159 6.433082 5.442476 -11.456530 8.495605 -0.495830 7.033092 -25.326912 -14.650198 15.981870 0.000000 0.000000 0.000000 4.968517 0.847120 8.298363 0.275575 1.277705 0.475221 -24.421921 -10.803683 15.427215 0.000000 0.000000 0.000000 -2.292642 0.322361 6.065976 -4.627836 -3.512654 -21.373857 0.908258 -23.843040 29.649338 -3.615054 1.308062 -3.239127 0.000000 0.000000 0.000000 4.303677 16.872757 -4.823278 -71.032243 -3.063643 26.841085 -23.013496 -9.963111 2.526671 9.546871 -14.158225 -40.239501 29.229634 3.751375 8.326441 5.672147 -4.606361 -21.338458 0.000000 0.000000 0.000000 10.885909 2.451870 4.923020 18.856678 2.544733 -9.527940 0.000000 0.000000 0.000000 10.038300 -7.678014 -12.830040 15.761385 1.640011 7.903054 0.000000 0.000000 0.000000 0.450002 -2.728197 -1.294484 20.095542 2.390827 0.586251 0.000000 0.000000 0.000000 64.620051 19.524694 -2.150418 -3.668336 -19.003604 -7.577209 0.000000 0.000000 0.000000 -7.994116 20.784166 4.057987 -9.734328 62.021883 -49.499162 -135.543016 69.405428 -141.594893 -23.483835 20.896076 -52.240609 -0.106569 6.633007 0.238412 20.226101 23.735685 -17.824588 0.000000 0.000000 0.000000 16.096626 12.586665 -2.940424 -2.363413 5.432453 -21.082100 0.000000 0.000000 0.000000 12.296772 27.555190 -25.315028 11.659749 -1.083535 1.859947 0.000000 0.000000 0.000000 20.147387 19.109054 -3.433477 -0.970834 8.052452 -20.064804 0.000000 0.000000 0.000000 -65.216604 -16.341610 1.468745 19.242670 2.371139 4.302982 0.000000 0.000000 0.000000 
0.313789 0.955606 1.340271 176.215965 -78.407025 177.227733 6.424743 5.389098 -11.330405 8.517934 -0.538174 6.774253 -25.296843 -14.611833 16.044949 0.000000 0.000000 0.000000 5.004209 0.837890 8.318953 0.261105 1.274978 0.449146 -24.352953 -10.840757 15.535548 0.000000 0.000000 0.000000 -2.277657 0.313891 6.083608 -4.622878 -3.518709 -21.396053 -0.190963 -23.326163 29.224217 -1.515443 1.078844 -1.632075 0.000000 0.000000 0.000000 6.626664 15.519415 -5.072278 -71.183891 -1.489547 27.240664 -24.284645 -11.185050 3.007344 11.506895 -12.268771 -41.321998 24.726542 4.180551 6.486681 9.208844 -3.223189 -20.257237 0.000000 0.000000 0.000000 7.254625 1.667530 2.812653 22.245368 3.045366 -6.472788 0.000000 0.000000 0.000000 7.466042 -8.388171 -12.848569 17.549603 1.489385 8.498084 0.000000 0.000000 0.000000 -2.476287 -3.316671 -1.164625 23.663601 2.312144 -0.811621 0.000000 0.000000 0.000000 62.025866 19.540756 -1.481321 -2.477813 -18.905218 -8.023950 0.000000 0.000000 0.000000 -5.416067 21.562651 1.882333 -4.048029 61.258469 -43.570548 -138.000600 70.842930 -144.614821 -24.242314 20.601451 -52.215506 2.616210 6.207833 0.329801 17.094509 20.772065 -18.428161 0.000000 0.000000 0.000000 12.176843 13.109346 -4.045705 4.094799 6.564339 -17.619276 0.000000 0.000000 0.000000 10.594683 24.745676 -23.605104 16.857220 4.249938 -8.107323 0.000000 0.000000 0.000000 22.110016 18.033692 -2.150832 -1.263828 7.301487 -19.026747 0.000000 0.000000 0.000000 -63.592390 -17.127598 1.648337 18.863843 2.789259 3.958162 0.000000 0.000000 0.000000 
0.313789 0.955606 1.345551 179.791735 -78.158142 173.547821 6.657548 5.425829 -11.097628 8.976931 -0.673197 6.631407 -25.132276 -14.597586 15.560644 0.000000 0.000000 0.000000 5.122563 0.796930 8.321622 0.802067 1.361785 0.633499 -23.768172 -10.916132 15.399528 0.000000 0.000000 0.000000 -1.099800 -0.048154 6.327684 -2.136493 -3.065754 -20.881875 -2.120771 -22.328310 28.309372 -1.713734 1.021999 -1.479217 0.000000 0.000000 0.000000 6.522225 14.648640 -4.669036 -71.723300 -1.917579 26.717157 -24.071041 -11.003481 2.910851 12.210580 -11.275401 -44.088433 20.132553 3.425480 4.983527 18.921899 0.722358 -16.623750 0.000000 0.000000 0.000000 10.920702 2.392687 4.777378 12.250060 1.285437 -8.323363 0.000000 0.000000 0.000000 5.357078 -7.974404 -11.900591 19.326487 1.574450 9.730844 0.000000 0.000000 0.000000 1.841869 -1.431943 -0.007270 19.865350 2.251589 -0.317839 0.000000 0.000000 0.000000 58.355437 18.997250 -1.725310 0.941581 -21.880694 -10.784064 0.000000 0.000000 0.000000 -5.820828 21.312026 2.538046 -5.333065 60.972121 -43.580097 -135.378211 69.676012 -141.395352 -25.465058 19.969592 -50.672653 3.338953 3.828179 0.314929 10.604448 17.785007 -21.217210 0.000000 0.000000 0.000000 14.055554 11.622906 -3.254878 3.569808 10.101254 -26.380279 0.000000 0.000000 0.000000 13.053169 24.647641 -22.101707 13.328089 3.584300 -7.540885 0.000000 0.000000 0.000000 20.558201 16.617858 -2.265258 1.213637 7.973624 -19.157116 0.000000 0.000000 0.000000 -64.693962 -19.071064 4.816122 19.739795 4.489865 3.823692 0.000000 0.000000 0.000000 
